<svg id="Layer_1" data-name="Layer 1" xmlns="http://www.w3.org/2000/svg" viewBox="0 0 16 16"><defs><style>.cls-1{fill:#e5a125;}</style></defs><title>icon-minhhung</title><path class="cls-1" d="M8,.22A4.78,4.78,0,0,0,3.23,5a5,5,0,0,0,.6,1.93c.35.75.81,1.6,1.31,2.45,1,1.7,2.1,3.4,2.53,4.21a.38.38,0,0,0,.67,0c.43-.81,1.54-2.52,2.53-4.21.5-.85,1-1.7,1.31-2.45A5,5,0,0,0,12.77,5,4.78,4.78,0,0,0,8,.22ZM8,2.56a2.3,2.3,0,1,1-2.3,2.3A2.3,2.3,0,0,1,8,2.56Z"/><path class="cls-1" d="M3.35,11.74a.38.38,0,0,0-.29.12l-3,3.27a.38.38,0,0,0,.28.64H15.62a.38.38,0,0,0,.29-.64l-3-3.27a.38.38,0,0,0-.29-.12H10.17a.38.38,0,1,0,0,.76h2.32L14.76,15H1.24L3.52,12.5H5.82a.38.38,0,1,0,0-.76H3.35Z"/></svg>