<svg id="Layer_1" data-name="Layer 1" xmlns="http://www.w3.org/2000/svg" viewBox="0 0 16 16"><defs><style>.cls-1{fill:#fff;}</style></defs><title>icon-minhhung</title><path class="cls-1" d="M14.76,0V16H11.91V12.44H8V16H5.16V0ZM13.69,1.07H11.91V2.84h1.78Zm-2.84,0H9.07V2.84h1.78ZM8,1.07H6.22V2.84H8Zm5.69,2.84H11.91V5.69h1.78Zm-2.84,0H9.07V5.69h1.78ZM8,3.91H6.22V5.69H8Zm-3.2.71V16H1.24V4.62ZM3.73,5.69H2.31V7.11H3.73Zm10,1.07H11.91V8.53h1.78Zm-2.84,0H9.07V8.53h1.78ZM8,6.76H6.22V8.53H8ZM3.73,8.18H2.31V9.6H3.73Zm10,1.42H11.91v1.78h1.78Zm-2.84,0H9.07v1.78h1.78ZM8,9.6H6.22v1.78H8ZM3.73,10.67H2.31v1.42H3.73Zm0,2.49H2.31v1.42H3.73Z"/></svg>